<?xml version="1.0" standalone="no"?>
<!DOCTYPE svg PUBLIC "-//W3C//DTD SVG 20010904//EN"
 "http://www.w3.org/TR/2001/REC-SVG-20010904/DTD/svg10.dtd">
<svg version="1.0" xmlns="http://www.w3.org/2000/svg"
 width="200.000000pt" height="200.000000pt" viewBox="0 0 200.000000 200.000000"
 preserveAspectRatio="xMidYMid meet">
<metadata>
Created by potrace 1.11, written by Peter Selinger 2001-2013
</metadata>
<g transform="translate(0.000000,200.000000) scale(0.100000,-0.100000)"
fill="#000000" stroke="none">
<path d="M0 1965 c0 -31 3 -35 28 -36 23 -2 24 -2 5 -6 -28 -5 -41 -48 -24
-75 7 -11 7 -18 1 -18 -5 0 -10 -16 -10 -35 0 -21 5 -35 13 -35 9 0 9 -2 0 -8
-9 -6 -13 -42 -12 -126 l0 -118 57 7 c69 7 121 15 144 22 23 6 24 43 1 43 -9
0 -13 3 -9 7 4 5 13 8 19 8 7 0 13 8 15 18 2 9 -2 17 -8 17 -6 0 -8 5 -4 12 5
8 1 9 -12 5 -18 -7 -18 -6 -2 7 19 14 25 46 9 46 -16 0 -22 -18 -9 -23 12 -5
8 -6 -29 -7 -9 -1 -13 29 -6 46 3 8 10 11 17 7 6 -3 8 -3 4 2 -4 4 0 21 10 38
13 23 14 31 4 34 -6 3 -10 9 -7 13 3 5 11 7 18 5 16 -6 50 66 37 79 -15 15
-12 29 4 23 10 -4 13 -1 9 9 -7 18 6 18 27 -1 15 -13 17 -13 17 0 0 8 -6 15
-14 15 -7 0 -13 5 -13 10 0 6 -6 10 -14 10 -8 0 -16 7 -20 15 -6 18 -2 19 25
4 15 -7 24 -7 33 0 8 6 22 8 31 4 12 -4 16 -3 12 4 -4 6 -28 11 -55 11 -36 1
-54 -4 -70 -19 -12 -11 -22 -15 -22 -10 0 6 -7 8 -15 5 -8 -4 -25 0 -38 9 -13
8 -49 15 -85 16 l-62 1 0 -35z m200 -16 c0 -8 4 -8 14 0 11 9 16 9 22 0 4 -8
2 -15 -5 -17 -7 -2 -21 -14 -30 -25 -9 -11 -26 -29 -38 -40 -24 -22 -32 -44
-11 -31 11 7 -29 -65 -42 -76 -4 -3 -9 -13 -13 -22 -3 -10 -14 -18 -23 -18
-16 0 -15 3 3 23 37 41 36 52 -1 17 -21 -20 -34 -27 -31 -17 4 9 10 17 15 17
4 0 11 10 17 22 8 18 6 26 -11 41 l-21 18 28 -4 c32 -5 35 3 7 20 -13 9 -19
22 -17 43 1 16 7 28 12 27 6 -2 9 -13 9 -25 -1 -17 1 -19 17 -9 12 7 15 15 9
21 -17 17 20 46 57 46 18 0 33 -5 33 -11z m10 -103 c0 -2 -7 -6 -15 -10 -8 -3
-15 -1 -15 4 0 6 7 10 15 10 8 0 15 -2 15 -4z m-93 -172 c-3 -3 -12 -4 -19 -1
-8 3 -5 6 6 6 11 1 17 -2 13 -5z m20 -90 c-3 -3 -12 -4 -19 -1 -8 3 -5 6 6 6
11 1 17 -2 13 -5z m40 0 c-3 -3 -12 -4 -19 -1 -8 3 -5 6 6 6 11 1 17 -2 13 -5z"/>
<path d="M115 1819 c-11 -17 1 -21 15 -4 8 9 8 15 2 15 -6 0 -14 -5 -17 -11z"/>
<path d="M377 1965 c-10 -15 -13 -26 -7 -30 6 -4 8 -11 5 -16 -4 -5 -1 -9 5
-9 7 0 9 7 6 17 -4 9 -2 20 5 23 6 4 9 14 7 23 -2 12 -7 10 -21 -8z"/>
<path d="M261 1856 c-10 -12 -8 -13 8 -9 12 3 21 9 21 14 0 14 -16 11 -29 -5z"/>
<path d="M625 1810 c5 -8 -21 -15 -47 -12 -3 1 -12 -5 -18 -13 -7 -8 -17 -15
-23 -15 -10 0 -30 -16 -70 -58 -12 -13 -35 -31 -50 -39 -19 -9 -27 -20 -23
-29 3 -8 2 -13 -2 -10 -5 3 -17 -9 -27 -27 -10 -18 -25 -37 -33 -43 -8 -6 -15
-24 -16 -40 -1 -16 -5 -34 -9 -41 -4 -6 -12 -38 -18 -70 -6 -31 -19 -74 -30
-95 -25 -49 -24 -75 6 -134 26 -51 31 -79 17 -88 -5 -3 -8 -29 -6 -58 2 -39 8
-57 23 -69 22 -18 37 -90 36 -166 0 -23 3 -39 7 -37 5 3 8 1 8 -4 0 -10 -23
-22 -40 -22 -17 0 -20 34 -5 50 11 12 13 20 6 25 -6 3 -11 -2 -12 -12 0 -10
-3 -13 -6 -5 -8 20 -23 14 -33 -13 -7 -19 -6 -30 7 -45 9 -10 20 -17 25 -14 4
3 5 -2 2 -11 -5 -13 -9 -13 -22 -3 -13 11 -14 11 -8 -1 5 -8 3 -16 -5 -21 -11
-7 -10 -14 1 -37 23 -45 23 -46 10 -38 -10 6 -12 4 -7 -9 4 -10 10 -30 13 -44
4 -21 3 -24 -5 -12 -9 13 -11 12 -11 -3 0 -10 -4 -15 -10 -12 -5 3 -10 19 -10
34 0 15 -3 31 -7 35 -5 4 -8 11 -9 14 -8 52 -18 94 -25 98 -5 3 -9 22 -9 43 0
21 -7 45 -18 57 -52 57 -46 71 7 17 62 -64 78 -75 67 -48 -3 8 -1 15 4 15 6 0
10 5 10 11 0 5 -4 7 -10 4 -5 -3 -21 5 -34 19 -13 14 -30 26 -37 26 -11 0 -11
2 -1 9 10 6 10 10 -3 21 -19 16 -19 22 4 49 22 26 21 82 -3 129 -9 18 -12 32
-6 32 5 0 10 -5 10 -10 0 -6 8 -14 18 -17 9 -4 24 -16 34 -28 24 -30 28 -16 7
33 -16 38 -21 42 -54 42 -23 0 -35 -5 -35 -13 0 -15 -37 -53 -44 -46 -2 2 -14
45 -26 94 -25 99 -42 135 -67 135 -14 0 -15 -13 -11 -105 4 -94 7 -108 26
-121 12 -8 22 -21 22 -27 0 -7 -7 -3 -15 7 -8 11 -15 15 -15 9 0 -6 6 -16 14
-22 11 -9 12 -21 4 -53 -10 -47 -4 -73 14 -62 10 5 10 4 1 -6 -10 -11 -15 -11
-28 0 -8 7 -18 10 -22 6 -3 -3 -1 -6 5 -6 7 0 12 -7 12 -16 0 -8 -4 -12 -10
-9 -6 4 -10 -30 -10 -94 0 -95 1 -100 23 -104 l22 -4 -22 -2 c-19 -1 -23 -7
-23 -31 0 -21 5 -30 16 -30 12 0 14 -3 6 -13 -18 -21 -3 -57 24 -57 12 0 25
-4 28 -9 3 -4 -6 -6 -19 -3 -19 3 -25 0 -25 -14 0 -11 4 -25 9 -33 8 -12 12
-12 25 -2 9 7 13 17 10 22 -3 5 0 9 5 9 6 0 11 11 11 24 0 14 5 28 10 31 14 8
3 24 -24 35 -17 7 -18 9 -3 9 12 1 16 5 10 14 -13 21 -12 36 4 30 11 -4 11 -8
3 -13 -9 -6 -9 -9 -1 -14 6 -4 9 -12 6 -17 -4 -5 1 -9 9 -9 10 0 13 6 10 15
-4 8 -2 15 4 15 10 0 4 -81 -7 -90 -3 -3 -8 -18 -9 -34 -3 -23 -1 -28 13 -23
10 4 14 3 10 -4 -4 -6 -13 -8 -20 -5 -16 6 -24 -11 -17 -38 4 -15 12 -17 43
-13 22 3 39 2 39 -3 0 -9 -36 -20 -67 -20 -12 0 -23 -5 -25 -12 -3 -7 -7 -5
-11 6 -4 11 -3 15 4 10 7 -4 10 -1 7 7 -3 8 -11 13 -17 11 -7 -1 -10 2 -6 8 3
6 11 8 16 5 5 -4 9 -1 9 5 0 17 -31 25 -40 10 -6 -9 -12 -5 -24 16 -15 29 -15
28 -16 -41 0 -58 3 -73 20 -88 23 -20 27 -39 5 -31 -8 4 -12 11 -8 17 3 5 1 7
-5 3 -6 -4 -11 -66 -11 -171 l-2 -165 905 0 c602 0 907 3 911 10 4 6 11 8 16
5 5 -4 9 -1 9 5 0 7 6 10 14 7 8 -3 17 1 20 10 4 8 13 13 20 10 8 -3 17 1 20
10 6 14 0 15 -41 8 -27 -4 -55 -8 -63 -9 -9 -1 -22 -6 -30 -11 -9 -5 -7 1 4
14 11 12 25 20 30 18 6 -3 17 2 24 9 10 11 6 13 -22 12 -20 -1 -33 -5 -30 -9
3 -5 -2 -6 -11 -3 -25 10 -3 25 36 26 19 1 53 -2 77 -5 31 -4 42 -3 42 8 0 9
-7 11 -22 7 -13 -3 -19 -1 -15 5 8 13 -31 34 -68 36 -38 2 -116 -11 -130 -22
-14 -11 -77 -22 -71 -13 3 5 23 17 46 27 50 23 52 38 3 29 -30 -5 -35 -4 -27
6 8 8 36 11 83 8 39 -1 71 0 71 5 0 4 -5 7 -11 7 -6 0 -23 9 -39 20 -15 11
-37 18 -48 15 -12 -2 -24 1 -28 6 -5 9 -67 5 -84 -6 -5 -3 -11 -1 -15 5 -3 6
4 10 17 10 13 0 29 4 37 9 11 7 7 13 -17 25 -17 9 -41 18 -54 20 -13 3 -25 5
-28 6 -3 1 -13 1 -23 0 -16 -1 -17 2 -7 19 12 24 10 25 -53 36 -21 3 -35 10
-32 16 11 17 -4 9 -28 -15 -20 -20 -30 -23 -75 -18 -56 5 -61 8 -35 27 14 11
12 12 -15 11 -34 -1 -50 -22 -32 -40 8 -8 9 -6 5 7 -4 10 -2 17 4 17 6 0 11
-4 11 -10 0 -5 16 -16 35 -24 35 -15 44 -29 25 -41 -5 -3 -10 0 -10 8 0 13
-29 33 -35 25 -1 -2 -7 -12 -13 -23 -10 -17 -11 -18 -12 -3 0 10 -14 24 -34
32 -43 18 -51 32 -32 52 9 9 14 19 11 24 -8 13 -48 3 -58 -15 -4 -8 -13 -12
-19 -9 -7 4 -8 2 -4 -5 5 -8 13 -7 29 4 12 8 25 15 29 15 13 0 -15 -39 -32
-44 -12 -3 -11 -4 3 -5 9 0 17 -9 17 -18 0 -13 2 -15 8 -5 12 18 42 4 43 -22
1 -16 2 -17 6 -3 2 9 9 17 15 17 5 0 8 -6 5 -13 -2 -6 2 -18 9 -25 8 -7 14 -8
14 -2 0 5 7 10 15 10 19 0 19 -7 0 -26 -8 -9 -19 -12 -25 -9 -5 3 -10 -1 -10
-9 0 -10 -9 -16 -26 -16 -14 0 -23 -4 -19 -10 3 -5 0 -10 -8 -10 -13 0 -26 27
-27 53 0 4 10 11 22 16 l22 8 -22 12 c-19 10 -22 9 -22 -6 -1 -17 -2 -16 -15
1 -13 17 -15 17 -15 4 0 -9 5 -20 10 -23 7 -4 6 -13 -1 -27 -6 -11 -14 -16
-18 -11 -8 12 -38 23 -44 16 -3 -3 5 -15 19 -28 31 -29 31 -37 -1 -25 -28 11
-30 8 -14 -22 9 -17 8 -19 -9 -14 -13 4 -22 1 -26 -9 -8 -23 -26 -9 -26 21 0
15 6 24 15 24 20 0 20 49 -1 78 -12 17 -21 21 -37 16 -12 -4 -24 -10 -27 -14
-10 -13 -40 -19 -46 -8 -5 7 -11 6 -19 -6 -11 -15 -13 -15 -19 -1 -3 9 -2 13
4 10 6 -3 10 -1 10 5 0 7 7 10 15 6 8 -3 24 4 35 16 14 16 23 18 33 10 10 -8
13 -7 13 7 0 12 -6 17 -16 14 -8 -3 -1 5 15 18 32 25 60 52 84 83 13 15 12 17
-10 14 -13 -2 -54 -18 -91 -35 -36 -18 -77 -35 -90 -38 -38 -9 -126 -14 -133
-7 -3 3 -15 7 -26 9 -27 4 -65 33 -80 60 -7 12 -15 20 -19 18 -12 -7 -19 18
-13 48 5 23 3 26 -13 21 -14 -4 -16 -3 -5 4 14 10 48 5 57 -9 3 -5 10 -9 15
-9 6 0 7 5 3 11 -4 8 -1 8 12 1 21 -11 107 7 127 27 12 12 -4 15 -51 11 -13
-1 -30 7 -39 17 -8 10 -11 11 -7 3 6 -12 4 -13 -7 -2 -7 6 -22 12 -32 12 -16
0 -17 3 -8 14 10 12 8 13 -10 9 -16 -5 -20 -3 -14 6 4 7 18 11 31 8 36 -6 29
7 -11 23 -51 20 -45 40 13 40 26 0 57 0 69 0 22 0 22 1 5 19 -9 10 -21 18 -26
17 -5 -1 -11 5 -13 12 -3 7 4 12 15 12 12 0 27 7 36 15 8 8 19 15 25 15 5 0
22 5 36 12 36 16 14 28 -56 28 -47 0 -59 4 -80 26 -21 23 -24 34 -21 94 1 37
9 86 16 108 8 22 12 43 9 46 -4 3 -2 6 4 6 8 0 8 12 1 38 -10 41 -74 95 -116
99 -13 1 -30 7 -38 14 -8 6 -31 14 -51 16 -46 5 -46 5 -32 37 9 18 16 23 24
16 9 -7 12 12 13 78 1 116 1 114 11 107 5 -3 13 0 17 6 4 8 3 9 -4 5 -18 -11
-14 9 7 32 10 12 21 19 24 15 4 -3 9 2 13 11 3 9 10 13 15 10 5 -3 9 -1 9 5 0
5 11 8 24 5 13 -2 29 2 36 11 9 10 9 15 1 15 -6 0 -11 -5 -11 -11 0 -5 -5 -7
-11 -3 -8 4 -1 13 17 23 36 19 45 20 63 7 12 -9 12 -7 2 12 -6 12 -8 22 -2 22
5 0 12 11 15 24 3 13 8 32 11 43 3 10 -4 0 -15 -22 -11 -22 -20 -36 -20 -31 0
17 25 81 35 89 5 4 0 6 -13 4 -13 -2 -28 -10 -33 -18 -7 -10 -8 -6 -5 14 4 25
3 27 -11 15 -9 -7 -14 -8 -10 -2 4 7 0 15 -9 18 -22 8 -26 8 -19 -4z m-107
-626 l37 -16 -58 -14 c-79 -19 -103 -5 -49 28 33 21 26 21 70 2z m-488 -54 c0
-5 -5 -10 -11 -10 -5 0 -7 5 -4 10 3 6 8 10 11 10 2 0 4 -4 4 -10z m528 3
c-10 -2 -26 -2 -35 0 -10 3 -2 5 17 5 19 0 27 -2 18 -5z m42 -38 c10 -13 9
-15 -8 -15 -15 0 -20 5 -16 15 4 8 7 15 9 15 1 0 8 -7 15 -15z m-105 -15 c3
-5 2 -10 -4 -10 -5 0 -13 5 -16 10 -3 6 -2 10 4 10 5 0 13 -4 16 -10z m127
-55 c3 -14 1 -25 -4 -25 -5 0 -8 -6 -5 -12 2 -7 0 -24 -6 -38 -5 -14 -9 -35
-8 -47 0 -13 -3 -23 -9 -23 -5 0 -15 -12 -22 -26 -13 -27 -86 -74 -113 -74 -8
0 -15 7 -15 16 0 8 -4 13 -8 10 -11 -6 -40 51 -46 89 -2 17 -5 30 -6 30 -7 0
-5 82 2 92 6 7 29 9 64 6 35 -3 61 0 70 8 8 6 14 7 14 2 0 -5 7 -10 15 -10 8
0 15 5 15 10 0 6 3 8 6 4 4 -3 13 1 21 9 18 18 29 12 35 -21z m-522 -24 c-6
-12 -15 -21 -20 -21 -14 0 -12 7 7 30 21 24 29 19 13 -9z m60 19 c0 -5 -8 -10
-17 -10 -15 0 -16 2 -3 10 19 12 20 12 20 0z m-80 -149 c-23 -41 -32 -47 -26
-19 5 22 3 26 -9 22 -8 -4 -15 -2 -15 3 0 5 13 9 29 9 24 0 28 -3 21 -15z
m-53 -33 c-3 -8 -6 -5 -6 6 -1 11 2 17 5 13 3 -3 4 -12 1 -19z m69 -45 c-3
-15 0 -33 6 -40 12 -15 -5 -17 -37 -3 -16 7 -16 9 -4 9 18 1 35 31 18 31 -5 0
-4 7 3 15 18 20 19 19 14 -12z m374 -43 c0 -5 14 -23 30 -40 17 -18 27 -36 23
-43 -11 -18 -13 -57 -2 -57 5 0 9 -7 9 -15 0 -20 -16 -19 -24 1 -4 9 -9 14
-13 10 -6 -5 -28 35 -31 57 -1 4 -8 14 -16 22 -12 12 -12 21 -3 45 11 29 27
41 27 20z m-110 -30 c0 -10 14 -43 31 -72 18 -29 40 -71 50 -93 10 -22 19 -35
19 -28 0 7 13 0 29 -15 28 -25 35 -52 18 -68 -4 -4 -7 -14 -6 -23 0 -12 3 -11
9 4 7 17 9 17 9 3 1 -19 26 -24 36 -8 3 6 1 10 -6 10 -7 0 -9 3 -6 7 4 3 2 13
-5 22 -6 9 3 2 22 -16 19 -18 32 -35 29 -37 -2 -3 -39 -7 -80 -10 l-76 -6 0
40 c0 22 -5 45 -10 52 -15 18 -65 179 -59 186 3 3 2 10 -3 16 -13 17 -20 56
-10 56 5 0 9 -9 9 -20z m-1 -100 c1 -13 0 -13 -9 0 -9 13 -10 13 -11 0 0 -8
-5 -2 -9 14 -5 16 -6 34 -3 39 7 11 32 -30 32 -53z m10 -42 c-2 -13 2 -32 8
-43 6 -11 13 -38 16 -60 5 -28 4 -34 -3 -20 -5 11 -9 30 -9 43 -1 12 -5 22
-10 22 -14 0 -22 29 -15 56 8 30 16 31 13 2z m-169 -207 c0 -5 -26 -15 -57
-21 -32 -7 -61 -14 -65 -17 -5 -2 -8 6 -8 19 0 15 3 19 8 11 6 -9 18 -9 52 2
54 17 70 18 70 6z m43 -57 c-4 -11 -120 -44 -154 -44 -20 0 -1 14 24 17 12 2
29 6 37 10 8 3 23 5 34 4 10 -2 15 2 12 7 -4 6 3 8 16 4 12 -3 19 -1 15 5 -3
5 0 10 7 10 8 0 12 -6 9 -13z m-208 -34 c3 -5 1 -10 -4 -10 -6 0 -11 5 -11 10
0 6 2 10 4 10 3 0 8 -4 11 -10z m235 -24 c0 -2 -7 -7 -16 -10 -8 -3 -12 -2 -9
4 6 10 25 14 25 6z m613 -37 c4 1 7 -2 8 -6 0 -5 6 -15 12 -23 6 -8 2 -7 -10
4 -20 17 -23 17 -29 2 -3 -9 -11 -16 -17 -16 -5 0 -2 9 8 20 17 18 17 20 1 20
-14 0 -15 2 -4 14 11 12 14 12 18 -1 3 -8 9 -14 13 -14z m47 21 c0 -5 -4 -10
-10 -10 -5 0 -10 5 -10 10 0 6 5 10 10 10 6 0 10 -4 10 -10z m-829 -90 c0 -13
1 -13 7 0 5 12 15 14 37 9 17 -4 23 -7 15 -8 -9 0 -21 -6 -28 -13 -23 -23 -51
-19 -58 7 -3 14 -9 25 -13 25 -4 0 -15 17 -25 38 l-18 37 41 -40 c23 -21 41
-46 42 -55z m59 70 c-30 -11 -56 -20 -57 -20 -2 0 -3 6 -3 14 0 15 28 22 85
24 24 0 18 -3 -25 -18z m800 -14 c0 -2 -7 -6 -15 -10 -8 -3 -15 -1 -15 4 0 6
7 10 15 10 8 0 15 -2 15 -4z m-155 -16 c3 -5 1 -10 -4 -10 -6 0 -11 5 -11 10
0 6 2 10 4 10 3 0 8 -4 11 -10z m188 -10 c-3 -11 -10 -23 -16 -27 -7 -4 -8 0
-4 11 4 10 7 22 7 27 0 5 4 9 9 9 5 0 7 -9 4 -20z m-198 -10 c18 -8 17 -9 -7
-9 -16 -1 -28 4 -28 9 0 12 8 12 35 0z m7 -52 c-7 -7 -12 -8 -12 -2 0 14 12
26 19 19 2 -3 -1 -11 -7 -17z m-664 -18 c3 -8 0 -10 -8 -5 -9 5 -11 4 -6 -4 5
-8 12 -9 19 -3 7 5 30 12 52 15 l40 6 -34 -12 c-19 -8 -37 -19 -39 -25 -2 -7
-9 -10 -15 -6 -7 3 -3 -2 7 -10 11 -9 29 -16 40 -16 20 0 20 0 0 -14 -17 -13
-22 -12 -42 7 -21 19 -52 68 -52 81 0 10 34 -2 38 -14z m1620 -75 c-3 -3 -9 2
-12 12 -6 14 -5 15 5 6 7 -7 10 -15 7 -18z"/>
<path d="M385 1009 c-4 -6 -5 -12 -2 -15 2 -3 7 2 10 11 7 17 1 20 -8 4z"/>
<path d="M237 1773 c-12 -11 -8 -23 8 -23 8 0 15 7 15 15 0 16 -12 20 -23 8z"/>
<path d="M220 1731 c0 -6 4 -13 10 -16 6 -3 7 1 4 9 -7 18 -14 21 -14 7z"/>
<path d="M1155 1421 c-6 -11 13 -26 22 -17 4 3 1 6 -6 6 -7 0 -9 5 -6 10 3 6
4 10 1 10 -3 0 -7 -4 -11 -9z"/>
<path d="M1216 1398 c3 -4 11 -5 19 -1 21 7 19 12 -4 10 -11 0 -18 -5 -15 -9z"/>
<path d="M1166 1376 c3 -9 11 -16 16 -16 13 0 5 23 -10 28 -7 2 -10 -2 -6 -12z"/>
<path d="M1236 1358 c3 -5 10 -6 15 -3 13 9 11 12 -6 12 -8 0 -12 -4 -9 -9z"/>
<path d="M1216 1342 c-3 -5 1 -9 9 -9 8 0 12 4 9 9 -3 4 -7 8 -9 8 -2 0 -6 -4
-9 -8z"/>
<path d="M1250 1330 c0 -5 7 -7 15 -4 8 4 15 8 15 10 0 2 -7 4 -15 4 -8 0 -15
-4 -15 -10z"/>
<path d="M1229 1286 c12 -13 24 -31 25 -41 1 -9 7 -20 12 -23 5 -4 9 -13 10
-19 6 -71 5 -69 13 -48 4 10 7 29 5 42 -3 31 -61 113 -80 113 -4 0 3 -11 15
-24z"/>
<path d="M944 1270 c-17 -6 -37 -16 -44 -24 -14 -18 -9 -52 8 -48 7 1 12 -3
12 -9 0 -7 -10 -9 -25 -5 -25 6 -36 -8 -12 -17 10 -4 10 -6 0 -6 -15 -1 -18
-41 -3 -41 5 0 7 -6 4 -14 -4 -11 7 -18 38 -27 60 -17 100 -13 121 13 13 16
21 18 29 10 9 -9 9 -12 0 -12 -7 0 -12 -4 -12 -9 0 -5 18 -8 39 -8 21 1 37 5
35 9 -2 3 2 9 8 11 10 4 10 6 0 6 -7 1 -10 6 -6 13 4 7 3 8 -4 4 -15 -9 -124
24 -139 42 -7 9 -23 13 -42 10 -17 -3 -31 -3 -31 -2 0 2 4 14 9 27 7 18 22 27
56 36 25 6 51 8 57 5 7 -5 8 -2 4 5 -5 8 -3 12 5 10 24 -3 39 1 39 9 0 5 -6 9
-12 10 -7 0 -33 3 -58 6 -25 3 -59 1 -76 -4z m20 -175 c6 -16 -3 -19 -28 -9
-9 3 -13 10 -10 15 8 14 31 11 38 -6z"/>
<path d="M219 978 c5 -13 15 -23 22 -23 8 0 17 -4 21 -10 5 -6 8 -3 8 7 0 9
-9 20 -20 23 -11 3 -20 11 -20 16 0 5 -4 9 -10 9 -6 0 -6 -9 -1 -22z"/>
<path d="M1685 901 c-3 -5 0 -13 6 -17 7 -4 9 -3 5 4 -3 5 0 13 6 15 9 4 10 6
1 6 -6 1 -14 -3 -18 -8z"/>
<path d="M1615 871 c-3 -5 -7 -61 -10 -123 -2 -62 -5 -113 -6 -113 0 0 -3 -18
-4 -40 -8 -91 -28 -205 -36 -211 -20 -12 -8 -42 19 -49 15 -3 38 -17 52 -30
14 -12 39 -25 55 -27 17 -3 37 -8 45 -12 12 -5 16 7 18 70 3 67 1 76 -13 70
-9 -3 -13 -2 -10 4 3 6 14 10 23 10 12 1 10 5 -8 15 l-25 14 24 1 24 0 -27 21
c-14 11 -30 18 -35 15 -5 -3 -12 1 -15 9 -3 10 1 18 11 22 15 6 14 7 -3 14
-17 7 -17 8 -1 8 9 1 17 6 17 13 0 6 -3 8 -7 5 -3 -4 -13 3 -21 15 -12 16 -12
23 -4 26 7 2 12 15 12 28 0 14 -4 23 -10 19 -5 -3 -7 -12 -3 -20 3 -8 1 -15
-5 -15 -11 0 -10 14 3 42 4 10 10 16 14 13 4 -2 8 2 8 10 0 11 -5 10 -24 -2
-14 -10 -23 -11 -23 -4 0 6 5 11 10 11 6 0 10 6 10 14 0 8 6 17 13 20 6 4 2 4
-10 2 -17 -3 -23 1 -23 15 0 10 -6 19 -12 19 -9 0 -8 4 2 10 13 9 13 11 0 20
-13 9 -13 10 0 10 11 0 15 9 14 28 -1 15 -7 26 -13 25 -15 -4 -14 10 1 25 9 9
8 12 -4 12 -9 0 -19 -4 -23 -9z"/>
<path d="M995 749 c13 -20 -26 -34 -95 -34 -77 0 -92 -9 -31 -19 39 -6 58 -27
44 -49 -4 -6 6 -2 21 11 16 12 38 22 48 22 12 0 22 9 25 20 4 16 8 18 19 9 19
-16 31 16 14 36 -14 17 -55 21 -45 4z"/>
<path d="M1253 705 c0 -8 4 -12 9 -9 5 3 6 10 3 15 -9 13 -12 11 -12 -6z"/>
<path d="M890 670 c0 -5 5 -10 11 -10 5 0 7 5 4 10 -3 6 -8 10 -11 10 -2 0 -4
-4 -4 -10z"/>
<path d="M1243 642 c-5 -4 -10 -14 -10 -22 0 -8 -4 -24 -8 -35 -5 -16 -5 -17
4 -5 9 13 11 13 11 -2 0 -9 5 -20 11 -24 9 -5 10 1 5 20 -9 37 8 32 33 -9 19
-33 41 -46 41 -25 0 6 -5 10 -12 10 -6 0 -8 3 -5 7 4 3 1 13 -6 21 -9 13 -9
14 1 8 24 -15 10 10 -22 36 -18 15 -37 24 -43 20z"/>
<path d="M1285 630 c4 -6 11 -8 16 -5 14 9 11 15 -7 15 -8 0 -12 -5 -9 -10z"/>
<path d="M1733 502 c1 -14 5 -18 11 -12 7 7 6 14 -1 21 -9 9 -12 7 -10 -9z"/>
<path d="M1235 500 c-3 -5 3 -10 14 -10 12 0 21 5 21 10 0 6 -6 10 -14 10 -8
0 -18 -4 -21 -10z"/>
<path d="M1207 453 c7 -17 18 -16 32 1 10 11 7 14 -12 12 -15 0 -23 -6 -20
-13z"/>
<path d="M1045 371 c-3 -6 -15 -11 -25 -11 -13 0 -18 -5 -13 -16 3 -8 12 -13
20 -10 9 4 17 -1 20 -14 7 -25 28 -26 37 -3 4 10 4 15 1 11 -4 -3 -15 1 -26
10 -13 12 -15 18 -7 23 7 5 10 11 6 14 -3 4 -9 2 -13 -4z"/>
<path d="M1885 360 c3 -5 8 -10 11 -10 2 0 4 5 4 10 0 6 -5 10 -11 10 -5 0 -7
-4 -4 -10z"/>
<path d="M1940 109 c0 -9 50 -33 56 -26 2 1 -1 8 -5 15 -9 15 -51 24 -51 11z"/>
</g>
</svg>
